<?xml version="1.0" encoding="UTF-8" standalone="no"?>
<svg
   xmlns:dc="http://purl.org/dc/elements/1.1/"
   xmlns:cc="http://creativecommons.org/ns#"
   xmlns:rdf="http://www.w3.org/1999/02/22-rdf-syntax-ns#"
   xmlns:svg="http://www.w3.org/2000/svg"
   xmlns="http://www.w3.org/2000/svg"
   xmlns:sodipodi="http://sodipodi.sourceforge.net/DTD/sodipodi-0.dtd"
   xmlns:inkscape="http://www.inkscape.org/namespaces/inkscape"
   inkscape:export-ydpi="96"
   inkscape:export-xdpi="96"
   inkscape:export-filename="/Users/tl/Downloads/startup_launch.png"
   height="1024"
   width="1024"
   inkscape:version="1.0beta2 (2b71d25, 2019-12-03)"
   sodipodi:docname="startup_launch.svg"
   xml:space="preserve"
   viewBox="0 0 1024 1024"
   y="0px"
   x="0px"
   id="Capa_1"
   version="1.1"><metadata
   id="metadata902"><rdf:RDF><cc:Work
       rdf:about=""><dc:format>image/svg+xml</dc:format><dc:type
         rdf:resource="http://purl.org/dc/dcmitype/StillImage" /><dc:title></dc:title></cc:Work></rdf:RDF></metadata><defs
   id="defs900" /><sodipodi:namedview
   inkscape:current-layer="Capa_1"
   inkscape:window-maximized="0"
   inkscape:window-y="62"
   inkscape:window-x="3139"
   inkscape:cy="496.5494"
   inkscape:cx="515.30708"
   inkscape:zoom="1.2895314"
   showgrid="false"
   id="namedview898"
   inkscape:window-height="1930"
   inkscape:window-width="2325"
   inkscape:pageshadow="2"
   inkscape:pageopacity="0"
   guidetolerance="10"
   gridtolerance="10"
   objecttolerance="10"
   borderopacity="1"
   inkscape:document-rotation="0"
   bordercolor="#666666"
   pagecolor="#ffffff" />













<g
   transform="matrix(1.8623622,0,0,1.8623789,35.240545,-14.594827)"
   id="g929"><path
     style="fill:#ff5249"
     d="m 520.67061,17.838017 c 0,0 -1.93,53.829998 -24.3,117.120003 l -92.82,-92.820002 c 63.29,-22.37 117.12,-24.300001 117.12,-24.300001 z"
     id="path833"
     inkscape:connector-curvature="0" /><path
     style="fill:#ffffff"
     d="m 403.55061,42.138018 92.82,92.820002 c -14.54001,41.17999 -37.75,86.36 -74.69001,123.3 -34.04099,34.041 -74.99299,61.29 -117.81,80.18 l -103.8,-103.80001 c 12.64001,-28.64999 30.28,-59.22 53.59001,-88.17 8.15999,-10.12999 17.01,-20.05999 26.59,-29.63999 36.94,-36.940001 82.11999,-60.150006 123.3,-74.690002 z"
     id="path835"
     inkscape:connector-curvature="0" /><path
     style="fill:#7bd8e8"
     d="m 407.53061,130.97802 c 15.61999,15.61999 15.62,40.95 -1e-5,56.57 -15.61999,15.62 -40.93999,15.62 -56.56999,0 -15.62006,-15.62995 -15.62,-40.95 0,-56.57 15.62,-15.62 40.94999,-15.62001 56.57,0 z"
     id="path837"
     inkscape:connector-curvature="0" /><g
     id="g845"
     transform="translate(18.91861,7.8370149)">
	<path
   style="fill:#ff5249"
   d="m 374.472,278.701 c 51.54,77.31 -44.94,127.28 -98.99,127.28 28.28,-28.28 20.02,-64.83 20.02,-64.83 l -10.55,-10.55 c 28.65,-12.64 59.22,-30.28 88.17,-53.59 z"
   id="path839"
   inkscape:connector-curvature="0" />
	<path
   style="fill:#ff5249"
   d="m 169.532,300.041 -1.62,-1.62 c -4.78,-4.79 -7.13,-11.73 -5.45,-18.29 4.17,-16.24 10.33,-34.36 18.69,-53.33 l 103.8,103.8 c -18.97,8.36 -37.09,14.52 -53.33,18.69 -6.56,1.68 -13.5,-0.67 -18.29,-5.45 l -1.62,-1.62 z"
   id="path841"
   inkscape:connector-curvature="0" />
	<path
   style="fill:#ff5249"
   d="m 233.052,137.281 1.69,1.35 c -23.31,28.95 -40.95,59.52 -53.59,88.17 l -10.55,-10.55 c 0,0 -36.55,-8.26 -64.83,20.02 0,-54.05 49.97,-150.53 127.28,-98.99 z"
   id="path843"
   inkscape:connector-curvature="0" />
</g><path
     style="fill:#ffdd78"
     d="m 188.4506,307.87801 42.18,42.18001 c -3.02999,11.98999 -10.21999,24.61 -21.08999,35.48 -23.43,23.42999 -121.115268,64.54526 -121.115268,64.54526 0,0 41.115268,-97.68526 64.545268,-121.11526 10.87,-10.87 23.49,-18.06 35.47999,-21.09001 z"
     id="path847"
     inkscape:connector-curvature="0"
     sodipodi:nodetypes="ccscsc" /><path
     d="m 287.58061,265.32802 c 3.90005,-3.90995 3.9,-10.24 0,-14.14 -3.91,-3.91001 -10.24,-3.91 -14.15,0 -3.9,3.9 -3.9,10.23 0,14.14 3.90995,3.90005 10.24,3.9 14.15,0 z"
     id="path849"
     inkscape:connector-curvature="0" /><path
     d="m 414.85161,194.61902 c 19.538,-19.538 19.542,-51.171 0,-70.712 -19.54,-19.539 -51.172,-19.54 -70.71301,0 -19.48899,19.48899 -19.49,51.20899 0.003,70.71399 19.49566,19.48435 51.216,19.49201 70.71,-0.002 z m -56.57,-56.57 c 11.723,-11.723 30.703,-11.725 42.428,0 11.72299,11.72199 11.725,30.703 0,42.42699 -11.69301,11.69401 -30.727,11.69401 -42.426,0.002 -11.69497,-11.70204 -11.69601,-30.736 -0.002,-42.429 z"
     id="path851"
     inkscape:connector-curvature="0" /><path
     d="m 121.1126,253.34602 c 1.23701,0.513 2.53701,0.762 3.82501,0.762 2.603,0 5.16,-1.01701 7.073,-2.929 20.08299,-20.083 44.854,-18.827 52.946,-17.76301 l 3.502,3.502 c -6.892,16.40001 -12.444,32.70801 -16.516,48.56901 -1.47001,5.73999 -0.974,11.814 1.211,17.37 -9.62801,4.437 -18.91701,10.95199 -27.00501,19.03999 -25.74099,25.74201 -72.658774,130.16679 -72.868771,132.82479 -0.230008,2.917 0.827994,5.789 2.896995,7.858 1.883004,1.882 4.430003,2.929 7.07,2.929 0.261998,0 0.524999,-0.01 0.788,-0.031 2.658,-0.209 107.084786,-47.12678 132.825776,-72.86778 8.08501,-8.085 14.59901,-17.373 19.036,-26.999 5.88201,2.313 11.93601,2.59799 17.38,1.20299 15.854,-4.07099 32.16001,-9.621 48.562,-16.51399 l 3.50201,3.502 c 1.063,8.093 2.319,32.864 -17.76301,52.945 -2.85899,2.86 -3.71499,7.161 -2.167,10.897 1.54701,3.73699 5.19301,6.173 9.238,6.173 39.58001,0 94.91501,-23.57101 115.29501,-61.65201 8.85099,-16.53699 14.877,-42.69899 -4.341,-75.348 8.14699,-6.88599 15.994,-14.08599 23.396,-21.48799 33.02,-33.02 58.942,-75.763 77.048,-127.039 22.62,-63.998004 24.783,-117.834005 24.864,-120.094001 0.1,-2.775001 -0.959,-5.466002 -2.922,-7.429998 -1.964,-1.9630065 -4.64401,-3.0270042 -7.43,-2.9220031 -2.26101,0.080995 -56.096,2.2449981 -120.091,24.8639981 -51.28,18.106001 -94.023,44.028996 -127.04201,77.049004 -7.39899,7.39899 -14.59899,15.24499 -21.48799,23.396 -32.648,-19.21801 -58.81001,-13.192 -75.34901,-4.341 -38.081,20.38 -61.65199,75.71599 -61.65199,115.296 0.003,4.044 2.44,7.691 6.17599,9.238 z m 81.606,125.12099 c -13.75,13.75001 -82.84137,57.83837 -103.228366,60.79938 2.961996,-20.388 47.051376,-89.47838 60.800376,-103.22738 7.69999,-7.69999 16.62799,-13.53799 25.602,-16.826 l 33.652,33.65201 c -3.28801,8.974 -9.12501,17.902 -16.82601,25.60199 z m 45.59001,-31.02699 c -2.894,0.74099 -6.246,-0.347 -8.73801,-2.83501 -48.541,-48.53999 13.77,13.77101 -45.41199,-45.41199 -2.49368,-2.49934 -3.582,-5.85 -2.843,-8.739 3.20299,-12.474 7.392,-25.272 12.486,-38.19301 l 82.695,82.695 c -12.923,5.095 -25.719,9.28301 -38.188,12.48401 z m 144.004,5.288 c -13.10201,24.479 -46.09,42.523 -76.152,48.73399 9.585,-18.03699 11.698,-40.998 8.196,-54.921 -0.813,-3.23399 -2.923,-4.85999 -3.041,-5.05099 24.233,-11.737 47.182,-25.81801 68.486,-42.01501 10.407,19.014 11.264,36.897 2.511,53.25301 z M 492.2296,116.42401 422.3336,46.528014 c 38.08101,-11.827996 71.21001,-16.256999 87.74601,-17.848994 -1.59301,16.538994 -6.023,49.667996 -17.85001,87.74499 z m -204.65799,7.47501 c 29.62499,-29.626001 67.859,-53.204002 113.671,-70.176001 l 83.792,83.792001 c -16.97,45.811 -40.548,84.04499 -70.176,113.672 -9.011,9.01 -18.714,17.715 -28.84,25.87199 -24.34201,19.60001 -51.13401,36.202 -79.718,49.41801 l -94.01971,-94.0183 c 13.216,-28.586 29.818,-55.378 49.416,-79.717 8.164,-10.133 16.86801,-19.837 25.875,-28.843 z m -101.54201,22.546 c 16.35901,-8.754 34.24001,-7.89601 53.25201,2.511 -16.197,21.302 -30.278,44.252 -42.015,68.487 -0.149,-0.092 -1.949,-2.355 -5.293,-3.109 -1.37501,-0.311 -27.834,-6.002 -54.679,8.26499 6.212,-30.06299 24.255,-63.05199 48.73499,-76.15399 z"
     id="path853"
     inkscape:connector-curvature="0"
     sodipodi:nodetypes="csccccccccscsccccccsccsccccccccccccscccccccccccccccccccccccccccccccccccc" /><g
     id="g909"
     transform="rotate(45,255.79842,283.24009)"><path
       inkscape:connector-curvature="0"
       id="path855"
       d="m 374.08387,418.81317 -0.007,-40.00104 c -10e-4,-5.5225 -4.47952,-9.99919 -10.00131,-9.99849 -5.52392,10e-4 -9.99991,4.48023 -9.9992,10.00203 l 0.007,40.00103 c 10e-4,5.5225 4.47952,9.9992 10.00132,9.99849 5.52321,-0.002 10.00061,-4.47952 9.99919,-10.00202 z" /><path
       inkscape:connector-curvature="0"
       id="path857"
       d="m 157.11066,418.81599 0.007,-40.00103 c 0.001,-5.5225 -4.47528,-10.00061 -9.99778,-10.00202 -5.52251,-0.001 -9.9992,4.47528 -10.00132,9.99849 l -0.007,40.00103 c -0.001,5.5225 4.47528,10.00061 9.99778,10.00202 5.52038,7.1e-4 9.99991,-4.47315 10.00132,-9.99849 z" /><path
       inkscape:connector-curvature="0"
       id="path859"
       d="m 319.84214,457.79739 -0.007,95.79175 c -7e-4,5.52321 4.4767,10.00061 9.9992,10.00061 5.52109,10e-4 10.00061,-4.47528 10.00061,-9.99919 l 0.007,-95.79176 c 7.1e-4,-5.52321 -4.47669,-10.00061 -9.99919,-10.00061 -5.52109,-10e-4 -9.9992,4.47669 -10.00061,9.9992 z" /><path
       inkscape:connector-curvature="0"
       id="path861"
       d="m 245.60095,561.61443 -0.007,95.79175 c -7e-4,5.52322 4.4767,10.00062 9.9992,10.00062 5.52109,10e-4 10.00061,-4.47528 10.00061,-9.9992 l 0.007,-95.79176 c 7.1e-4,-5.52321 -4.47669,-10.00061 -9.9992,-10.00061 -5.52179,-7.1e-4 -9.9999,4.4774 -10.00061,9.9992 z" /><path
       inkscape:connector-curvature="0"
       id="path863"
       d="m 191.35956,553.58914 -0.007,-95.79175 c -7.1e-4,-5.52321 -4.4774,-9.99991 -10.00132,-9.99991 -5.52109,0 -9.99919,4.47811 -9.99919,10.00061 l 0.007,95.79176 c 7e-4,5.52321 4.4774,9.9999 10.00132,9.9999 5.5225,0 9.9999,-4.4774 9.99919,-10.00061 z" /></g><path
     d="m 315.86161,237.03902 14.14,-14.14 c 3.90499,-3.905 3.90499,-10.237 0,-14.143 -3.906,-3.905 -10.236,-3.90501 -14.143,0 l -14.14,14.14 c -3.905,3.905 -3.905,10.237 0,14.143 3.906,3.90499 10.237,3.90499 14.143,0 z"
     id="path865"
     inkscape:connector-curvature="0" /></g>
<g
   transform="matrix(0.93118943,0,0,0.93118943,-1.3020499,0.53926295)"
   id="g867">
</g>
<g
   transform="matrix(0.93118943,0,0,0.93118943,-1.3020499,0.53926295)"
   id="g869">
</g>
<g
   transform="matrix(0.93118943,0,0,0.93118943,-1.3020499,0.53926295)"
   id="g871">
</g>
<g
   transform="matrix(0.93118943,0,0,0.93118943,-1.3020499,0.53926295)"
   id="g873">
</g>
<g
   transform="matrix(0.93118943,0,0,0.93118943,-1.3020499,0.53926295)"
   id="g875">
</g>
<g
   transform="matrix(0.93118943,0,0,0.93118943,-1.3020499,0.53926295)"
   id="g877">
</g>
<g
   transform="matrix(0.93118943,0,0,0.93118943,-1.3020499,0.53926295)"
   id="g879">
</g>
<g
   transform="matrix(0.93118943,0,0,0.93118943,-1.3020499,0.53926295)"
   id="g881">
</g>
<g
   transform="matrix(0.93118943,0,0,0.93118943,-1.3020499,0.53926295)"
   id="g883">
</g>
<g
   transform="matrix(0.93118943,0,0,0.93118943,-1.3020499,0.53926295)"
   id="g885">
</g>
<g
   transform="matrix(0.93118943,0,0,0.93118943,-1.3020499,0.53926295)"
   id="g887">
</g>
<g
   transform="matrix(0.93118943,0,0,0.93118943,-1.3020499,0.53926295)"
   id="g889">
</g>
<g
   transform="matrix(0.93118943,0,0,0.93118943,-1.3020499,0.53926295)"
   id="g891">
</g>
<g
   transform="matrix(0.93118943,0,0,0.93118943,-1.3020499,0.53926295)"
   id="g893">
</g>
<g
   transform="matrix(0.93118943,0,0,0.93118943,-1.3020499,0.53926295)"
   id="g895">
</g>
</svg>
